<svg width="307" height="283" viewBox="0 0 307 283" fill="none" xmlns="http://www.w3.org/2000/svg">
<g filter="url(#filter0_bdi_405_104)">
<path fill-rule="evenodd" clip-rule="evenodd" d="M224 176H102V175.989C101.668 175.996 101.334 176 101 176C76.1472 176 56 155.853 56 131C56 114.134 65.2787 99.4352 79.0099 91.7296C79.0033 91.3205 79 90.9107 79 90.5C79 49.3548 112.355 16 153.5 16C188.991 16 218.686 40.8177 226.177 74.0456C253.334 75.186 275 97.5628 275 125C275 152.159 253.77 174.36 227 175.913V176H224Z" fill="url(#paint0_radial_405_104)" fill-opacity="0.77"/>
</g>
<g style="mix-blend-mode:soft-light" filter="url(#filter1_di_405_104)">
<circle cx="101" cy="131" r="45" fill="#848484"/>
</g>
<g filter="url(#filter2_bdi_405_104)">
<path fill-rule="evenodd" clip-rule="evenodd" d="M78 204.989C77.6675 204.996 77.3342 205 77 205C52.1472 205 32 184.853 32 160C32 143.134 41.2787 128.435 55.0099 120.73C55.0033 120.321 55 119.911 55 119.5C55 78.3548 88.3548 45 129.5 45C164.991 45 194.686 69.8177 202.177 103.046C229.334 104.186 251 126.563 251 154C251 182.167 228.167 205 200 205H78V204.989Z" fill="url(#paint1_radial_405_104)" fill-opacity="0.77"/>
</g>
<g style="mix-blend-mode:soft-light" filter="url(#filter3_di_405_104)">
<circle cx="77" cy="160" r="45" fill="#848484"/>
</g>
<path d="M122.523 234.551L127 205H155L149.888 226.3C149.435 228.186 150.865 230 152.805 230H155.424C157.814 230 159.244 232.659 157.927 234.653L126 283L136.994 241.773C137.502 239.868 136.066 238 134.095 238H125.489C123.653 238 122.248 236.366 122.523 234.551Z" fill="url(#paint2_linear_405_104)"/>
<mask id="mask0_405_104" style="mask-type:alpha" maskUnits="userSpaceOnUse" x="32" y="45" width="219" height="160">
<path fill-rule="evenodd" clip-rule="evenodd" d="M78 204.989C77.6675 204.996 77.3342 205 77 205C52.1472 205 32 184.853 32 160C32 143.134 41.2787 128.435 55.0099 120.73C55.0033 120.321 55 119.911 55 119.5C55 78.3548 88.3548 45 129.5 45C164.991 45 194.686 69.8177 202.177 103.046C229.334 104.186 251 126.563 251 154C251 182.167 228.167 205 200 205C198.654 205 197.32 204.948 196 204.845V205H78V204.989Z" fill="url(#paint3_radial_405_104)" fill-opacity="0.77"/>
</mask>
<g mask="url(#mask0_405_104)">
<g filter="url(#filter4_f_405_104)">
<path d="M139 167C112.544 186.479 88.5142 200.005 73 205H210C193.343 205 158.189 178.55 139 167Z" fill="url(#paint4_radial_405_104)"/>
</g>
<g style="mix-blend-mode:screen" filter="url(#filter5_f_405_104)">
<path d="M145 150C128.284 159.573 104.802 204.545 95 207H195C184.475 207 157.124 155.677 145 150Z" fill="url(#paint5_linear_405_104)"/>
</g>
<g style="mix-blend-mode:screen" filter="url(#filter6_f_405_104)">
<path d="M140 162C128.781 168.402 112.579 205.358 106 207L173 205C165.936 205 148.137 165.796 140 162Z" fill="url(#paint6_linear_405_104)"/>
</g>
</g>
<defs>
<filter id="filter0_bdi_405_104" x="24" y="0" width="283" height="224" filterUnits="userSpaceOnUse" color-interpolation-filters="sRGB">
<feFlood flood-opacity="0" result="BackgroundImageFix"/>
<feGaussianBlur in="BackgroundImageFix" stdDeviation="8"/>
<feComposite in2="SourceAlpha" operator="in" result="effect1_backgroundBlur_405_104"/>
<feColorMatrix in="SourceAlpha" type="matrix" values="0 0 0 0 0 0 0 0 0 0 0 0 0 0 0 0 0 0 127 0" result="hardAlpha"/>
<feOffset dy="16"/>
<feGaussianBlur stdDeviation="16"/>
<feColorMatrix type="matrix" values="0 0 0 0 0 0 0 0 0 0.2015 0 0 0 0 0.3875 0 0 0 0.2 0"/>
<feBlend mode="normal" in2="effect1_backgroundBlur_405_104" result="effect2_dropShadow_405_104"/>
<feBlend mode="normal" in="SourceGraphic" in2="effect2_dropShadow_405_104" result="shape"/>
<feColorMatrix in="SourceAlpha" type="matrix" values="0 0 0 0 0 0 0 0 0 0 0 0 0 0 0 0 0 0 127 0" result="hardAlpha"/>
<feOffset dx="1" dy="2"/>
<feGaussianBlur stdDeviation="7"/>
<feComposite in2="hardAlpha" operator="arithmetic" k2="-1" k3="1"/>
<feColorMatrix type="matrix" values="0 0 0 0 1 0 0 0 0 1 0 0 0 0 1 0 0 0 1 0"/>
<feBlend mode="normal" in2="shape" result="effect3_innerShadow_405_104"/>
</filter>
<filter id="filter1_di_405_104" x="48" y="70" width="120" height="118" filterUnits="userSpaceOnUse" color-interpolation-filters="sRGB">
<feFlood flood-opacity="0" result="BackgroundImageFix"/>
<feColorMatrix in="SourceAlpha" type="matrix" values="0 0 0 0 0 0 0 0 0 0 0 0 0 0 0 0 0 0 127 0" result="hardAlpha"/>
<feOffset dx="-2" dy="-10"/>
<feGaussianBlur stdDeviation="3"/>
<feColorMatrix type="matrix" values="0 0 0 0 0 0 0 0 0 0 0 0 0 0 0 0 0 0 0.22 0"/>
<feBlend mode="normal" in2="BackgroundImageFix" result="effect1_dropShadow_405_104"/>
<feBlend mode="normal" in="SourceGraphic" in2="effect1_dropShadow_405_104" result="shape"/>
<feColorMatrix in="SourceAlpha" type="matrix" values="0 0 0 0 0 0 0 0 0 0 0 0 0 0 0 0 0 0 127 0" result="hardAlpha"/>
<feOffset dx="22" dy="12"/>
<feGaussianBlur stdDeviation="11"/>
<feComposite in2="hardAlpha" operator="arithmetic" k2="-1" k3="1"/>
<feColorMatrix type="matrix" values="0 0 0 0 1 0 0 0 0 1 0 0 0 0 1 0 0 0 0.74 0"/>
<feBlend mode="normal" in2="shape" result="effect2_innerShadow_405_104"/>
</filter>
<filter id="filter2_bdi_405_104" x="0" y="29" width="283" height="224" filterUnits="userSpaceOnUse" color-interpolation-filters="sRGB">
<feFlood flood-opacity="0" result="BackgroundImageFix"/>
<feGaussianBlur in="BackgroundImageFix" stdDeviation="8"/>
<feComposite in2="SourceAlpha" operator="in" result="effect1_backgroundBlur_405_104"/>
<feColorMatrix in="SourceAlpha" type="matrix" values="0 0 0 0 0 0 0 0 0 0 0 0 0 0 0 0 0 0 127 0" result="hardAlpha"/>
<feOffset dy="16"/>
<feGaussianBlur stdDeviation="16"/>
<feColorMatrix type="matrix" values="0 0 0 0 0 0 0 0 0 0.2015 0 0 0 0 0.3875 0 0 0 0.2 0"/>
<feBlend mode="normal" in2="effect1_backgroundBlur_405_104" result="effect2_dropShadow_405_104"/>
<feBlend mode="normal" in="SourceGraphic" in2="effect2_dropShadow_405_104" result="shape"/>
<feColorMatrix in="SourceAlpha" type="matrix" values="0 0 0 0 0 0 0 0 0 0 0 0 0 0 0 0 0 0 127 0" result="hardAlpha"/>
<feOffset dx="1" dy="2"/>
<feGaussianBlur stdDeviation="7"/>
<feComposite in2="hardAlpha" operator="arithmetic" k2="-1" k3="1"/>
<feColorMatrix type="matrix" values="0 0 0 0 1 0 0 0 0 1 0 0 0 0 1 0 0 0 1 0"/>
<feBlend mode="normal" in2="shape" result="effect3_innerShadow_405_104"/>
</filter>
<filter id="filter3_di_405_104" x="24" y="99" width="120" height="118" filterUnits="userSpaceOnUse" color-interpolation-filters="sRGB">
<feFlood flood-opacity="0" result="BackgroundImageFix"/>
<feColorMatrix in="SourceAlpha" type="matrix" values="0 0 0 0 0 0 0 0 0 0 0 0 0 0 0 0 0 0 127 0" result="hardAlpha"/>
<feOffset dx="-2" dy="-10"/>
<feGaussianBlur stdDeviation="3"/>
<feColorMatrix type="matrix" values="0 0 0 0 0 0 0 0 0 0 0 0 0 0 0 0 0 0 0.22 0"/>
<feBlend mode="normal" in2="BackgroundImageFix" result="effect1_dropShadow_405_104"/>
<feBlend mode="normal" in="SourceGraphic" in2="effect1_dropShadow_405_104" result="shape"/>
<feColorMatrix in="SourceAlpha" type="matrix" values="0 0 0 0 0 0 0 0 0 0 0 0 0 0 0 0 0 0 127 0" result="hardAlpha"/>
<feOffset dx="22" dy="12"/>
<feGaussianBlur stdDeviation="11"/>
<feComposite in2="hardAlpha" operator="arithmetic" k2="-1" k3="1"/>
<feColorMatrix type="matrix" values="0 0 0 0 1 0 0 0 0 1 0 0 0 0 1 0 0 0 0.74 0"/>
<feBlend mode="normal" in2="shape" result="effect2_innerShadow_405_104"/>
</filter>
<filter id="filter4_f_405_104" x="65" y="159" width="153" height="54" filterUnits="userSpaceOnUse" color-interpolation-filters="sRGB">
<feFlood flood-opacity="0" result="BackgroundImageFix"/>
<feBlend mode="normal" in="SourceGraphic" in2="BackgroundImageFix" result="shape"/>
<feGaussianBlur stdDeviation="4" result="effect1_foregroundBlur_405_104"/>
</filter>
<filter id="filter5_f_405_104" x="91" y="146" width="108" height="65" filterUnits="userSpaceOnUse" color-interpolation-filters="sRGB">
<feFlood flood-opacity="0" result="BackgroundImageFix"/>
<feBlend mode="normal" in="SourceGraphic" in2="BackgroundImageFix" result="shape"/>
<feGaussianBlur stdDeviation="2" result="effect1_foregroundBlur_405_104"/>
</filter>
<filter id="filter6_f_405_104" x="102" y="158" width="75" height="53" filterUnits="userSpaceOnUse" color-interpolation-filters="sRGB">
<feFlood flood-opacity="0" result="BackgroundImageFix"/>
<feBlend mode="normal" in="SourceGraphic" in2="BackgroundImageFix" result="shape"/>
<feGaussianBlur stdDeviation="2" result="effect1_foregroundBlur_405_104"/>
</filter>
<radialGradient id="paint0_radial_405_104" cx="0" cy="0" r="1" gradientUnits="userSpaceOnUse" gradientTransform="translate(133.164 50.1144) rotate(90.6693) scale(125.829 143.587)">
<stop stop-color="white"/>
<stop offset="1" stop-color="#99CEFF"/>
</radialGradient>
<radialGradient id="paint1_radial_405_104" cx="0" cy="0" r="1" gradientUnits="userSpaceOnUse" gradientTransform="translate(109.164 79.1145) rotate(90.6693) scale(125.829 143.587)">
<stop stop-color="white"/>
<stop offset="1" stop-color="#99CEFF"/>
</radialGradient>
<linearGradient id="paint2_linear_405_104" x1="144.067" y1="205" x2="144.067" y2="257" gradientUnits="userSpaceOnUse">
<stop stop-color="#E2BC38"/>
<stop offset="1" stop-color="#FFE244"/>
</linearGradient>
<radialGradient id="paint3_radial_405_104" cx="0" cy="0" r="1" gradientUnits="userSpaceOnUse" gradientTransform="translate(109.164 79.1144) rotate(90.6693) scale(125.829 143.587)">
<stop stop-color="white"/>
<stop offset="1" stop-color="#99CEFF"/>
</radialGradient>
<radialGradient id="paint4_radial_405_104" cx="0" cy="0" r="1" gradientUnits="userSpaceOnUse" gradientTransform="translate(151.889 200.786) rotate(-90) scale(21.5393 111.274)">
<stop stop-color="#FFDE41"/>
<stop offset="1" stop-color="#FFD200" stop-opacity="0"/>
</radialGradient>
<linearGradient id="paint5_linear_405_104" x1="147.688" y1="205.888" x2="147.688" y2="198.542" gradientUnits="userSpaceOnUse">
<stop stop-color="#FFDE41"/>
<stop offset="1" stop-color="#FFD200" stop-opacity="0"/>
</linearGradient>
<linearGradient id="paint6_linear_405_104" x1="141.361" y1="206.224" x2="141.361" y2="196.077" gradientUnits="userSpaceOnUse">
<stop stop-color="#FFDE41"/>
<stop offset="1" stop-color="#FFD200" stop-opacity="0"/>
</linearGradient>
</defs>
</svg>
