<svg width="55" height="65" viewBox="0 0 55 65" fill="none" xmlns="http://www.w3.org/2000/svg">
<path fill-rule="evenodd" clip-rule="evenodd" d="M17.1875 10.2632C17.1875 4.59499 21.8046 0 27.5 0C33.1956 0 37.8125 4.59499 37.8125 10.2632V11.9737C37.8125 18.5866 32.4259 23.9474 25.7812 23.9474H3.4375C1.53904 23.9474 0 22.4157 0 20.5263C0 18.6369 1.53904 17.1053 3.4375 17.1053H25.7812C28.6289 17.1053 30.9375 14.8078 30.9375 11.9737V10.2632C30.9375 8.37378 29.3985 6.84211 27.5 6.84211C25.6015 6.84211 24.0625 8.37378 24.0625 10.2632V11.1962C24.0625 13.0856 22.5235 14.6172 20.625 14.6172C18.7265 14.6172 17.1875 13.0856 17.1875 11.1962V10.2632ZM30.9375 53.0263C30.9375 59.6392 36.3241 65 42.9688 65C49.6134 65 55 59.6392 55 53.0263V51.3158C55 43.7583 48.8438 37.6316 41.25 37.6316H6.875C4.97654 37.6316 3.4375 39.1632 3.4375 41.0526C3.4375 42.9421 4.97654 44.4737 6.875 44.4737H41.25C45.0471 44.4737 48.125 47.5369 48.125 51.3158V53.0263C48.125 55.8603 45.8164 58.1579 42.9688 58.1579C40.1211 58.1579 37.8125 55.8603 37.8125 53.0263V51.3158C37.8125 49.4263 36.2735 47.8947 34.375 47.8947C32.4765 47.8947 30.9375 49.4263 30.9375 51.3158V53.0263ZM10.3125 27.3684C8.41404 27.3684 6.875 28.9001 6.875 30.7895C6.875 32.6789 8.41404 34.2105 10.3125 34.2105H44.6875C46.586 34.2105 48.125 32.6789 48.125 30.7895C48.125 28.9001 46.586 27.3684 44.6875 27.3684H10.3125Z" fill="white"/>
</svg>
